<mxfile host="app.diagrams.net" modified="2023-10-05T15:37:38.425Z" agent="Mozilla/5.0 (Windows NT 10.0; Win64; x64) AppleWebKit/537.36 (KHTML, like Gecko) Chrome/117.0.0.0 Safari/537.36" etag="fYTatSQI0Ihlbl-3w36e" version="22.0.2" type="device">
  <diagram id="C5RBs43oDa-KdzZeNtuy" name="Page-1">
    <mxGraphModel dx="1707" dy="516" grid="1" gridSize="10" guides="1" tooltips="1" connect="1" arrows="1" fold="1" page="1" pageScale="1" pageWidth="827" pageHeight="1169" math="0" shadow="0">
      <root>
        <mxCell id="WIyWlLk6GJQsqaUBKTNV-0" />
        <mxCell id="WIyWlLk6GJQsqaUBKTNV-1" parent="WIyWlLk6GJQsqaUBKTNV-0" />
        <mxCell id="lgDy9kngpjX4K9b9-K1K-0" value="&lt;p style=&quot;margin:0px;margin-top:4px;text-align:center;&quot;&gt;&lt;i&gt;&amp;lt;&amp;lt;Interface&amp;gt;&amp;gt;&lt;/i&gt;&lt;br&gt;&lt;b&gt;IPagoProcesable&lt;/b&gt;&lt;/p&gt;&lt;hr size=&quot;1&quot;&gt;&lt;p style=&quot;margin:0px;margin-left:4px;&quot;&gt;&lt;br&gt;&lt;/p&gt;&lt;hr size=&quot;1&quot;&gt;&lt;p style=&quot;margin:0px;margin-left:4px;&quot;&gt;+ procesarPago(Double mount): void&lt;br&gt;+ verificarInformacion(): boolean&lt;/p&gt;" style="verticalAlign=top;align=left;overflow=fill;fontSize=12;fontFamily=Helvetica;html=1;whiteSpace=wrap;" vertex="1" parent="WIyWlLk6GJQsqaUBKTNV-1">
          <mxGeometry x="-390" y="40" width="216" height="110" as="geometry" />
        </mxCell>
        <mxCell id="lgDy9kngpjX4K9b9-K1K-1" value="&lt;p style=&quot;margin:0px;margin-top:4px;text-align:center;&quot;&gt;&lt;b&gt;MetodoPago&lt;/b&gt;&lt;/p&gt;&lt;hr size=&quot;1&quot;&gt;&lt;p style=&quot;margin:0px;margin-left:4px;&quot;&gt;- formaPago: IPagoProcesable&lt;/p&gt;&lt;hr size=&quot;1&quot;&gt;&lt;p style=&quot;margin:0px;margin-left:4px;&quot;&gt;+&amp;nbsp;MetodoPago(IPagoProcesable formaPago)&lt;/p&gt;&lt;p style=&quot;margin:0px;margin-left:4px;&quot;&gt;+&amp;nbsp;realizarPago(double monto) : void&lt;/p&gt;" style="verticalAlign=top;align=left;overflow=fill;fontSize=12;fontFamily=Helvetica;html=1;whiteSpace=wrap;" vertex="1" parent="WIyWlLk6GJQsqaUBKTNV-1">
          <mxGeometry x="-810" y="50" width="260" height="90" as="geometry" />
        </mxCell>
        <mxCell id="lgDy9kngpjX4K9b9-K1K-2" value="" style="endArrow=open;html=1;endSize=12;startArrow=diamondThin;startSize=14;startFill=0;edgeStyle=orthogonalEdgeStyle;align=left;verticalAlign=bottom;rounded=0;exitX=1;exitY=0.5;exitDx=0;exitDy=0;" edge="1" parent="WIyWlLk6GJQsqaUBKTNV-1" source="lgDy9kngpjX4K9b9-K1K-1" target="lgDy9kngpjX4K9b9-K1K-0">
          <mxGeometry x="-1" y="3" relative="1" as="geometry">
            <mxPoint x="-550" y="190" as="sourcePoint" />
            <mxPoint x="-390" y="190" as="targetPoint" />
          </mxGeometry>
        </mxCell>
        <mxCell id="lgDy9kngpjX4K9b9-K1K-3" value="&lt;p style=&quot;margin:0px;margin-top:4px;text-align:center;&quot;&gt;&lt;b&gt;PagoTarjetaCredito&lt;/b&gt;&lt;/p&gt;&lt;hr size=&quot;1&quot;&gt;&lt;p style=&quot;margin:0px;margin-left:4px;&quot;&gt;- numeroTarjeta: String&lt;/p&gt;&lt;p style=&quot;margin:0px;margin-left:4px;&quot;&gt;- limiteTarjeta: Double&lt;/p&gt;&lt;hr size=&quot;1&quot;&gt;&lt;p style=&quot;margin:0px;margin-left:4px;&quot;&gt;&lt;br&gt;&lt;/p&gt;" style="verticalAlign=top;align=left;overflow=fill;fontSize=12;fontFamily=Helvetica;html=1;whiteSpace=wrap;" vertex="1" parent="WIyWlLk6GJQsqaUBKTNV-1">
          <mxGeometry x="-532" y="250" width="140" height="80" as="geometry" />
        </mxCell>
        <mxCell id="lgDy9kngpjX4K9b9-K1K-4" style="edgeStyle=orthogonalEdgeStyle;rounded=0;orthogonalLoop=1;jettySize=auto;html=1;exitX=0.5;exitY=1;exitDx=0;exitDy=0;" edge="1" parent="WIyWlLk6GJQsqaUBKTNV-1" source="lgDy9kngpjX4K9b9-K1K-3" target="lgDy9kngpjX4K9b9-K1K-3">
          <mxGeometry relative="1" as="geometry" />
        </mxCell>
        <mxCell id="lgDy9kngpjX4K9b9-K1K-5" value="&lt;p style=&quot;margin:0px;margin-top:4px;text-align:center;&quot;&gt;&lt;b&gt;PagoPaypal&lt;/b&gt;&lt;/p&gt;&lt;hr size=&quot;1&quot;&gt;&lt;p style=&quot;margin:0px;margin-left:4px;&quot;&gt;- correo: String&lt;/p&gt;&lt;p style=&quot;margin:0px;margin-left:4px;&quot;&gt;- contraseÃ±a: String&lt;/p&gt;&lt;p style=&quot;margin:0px;margin-left:4px;&quot;&gt;&lt;br&gt;&lt;/p&gt;" style="verticalAlign=top;align=left;overflow=fill;fontSize=12;fontFamily=Helvetica;html=1;whiteSpace=wrap;" vertex="1" parent="WIyWlLk6GJQsqaUBKTNV-1">
          <mxGeometry x="-352" y="250" width="140" height="80" as="geometry" />
        </mxCell>
        <mxCell id="lgDy9kngpjX4K9b9-K1K-7" value="&lt;p style=&quot;margin:0px;margin-top:4px;text-align:center;&quot;&gt;&lt;b&gt;PagoTransferencia&lt;/b&gt;&lt;/p&gt;&lt;hr size=&quot;1&quot;&gt;&lt;p style=&quot;margin:0px;margin-left:4px;&quot;&gt;- numeroCuenta: String&lt;/p&gt;&lt;p style=&quot;margin:0px;margin-left:4px;&quot;&gt;- nombreBanco: String&lt;/p&gt;&lt;p style=&quot;margin:0px;margin-left:4px;&quot;&gt;&lt;br&gt;&lt;/p&gt;" style="verticalAlign=top;align=left;overflow=fill;fontSize=12;fontFamily=Helvetica;html=1;whiteSpace=wrap;" vertex="1" parent="WIyWlLk6GJQsqaUBKTNV-1">
          <mxGeometry x="-172" y="250" width="140" height="80" as="geometry" />
        </mxCell>
        <mxCell id="lgDy9kngpjX4K9b9-K1K-8" value="" style="endArrow=block;dashed=1;endFill=0;endSize=12;html=1;rounded=0;exitX=0.5;exitY=0;exitDx=0;exitDy=0;entryX=0.5;entryY=1;entryDx=0;entryDy=0;" edge="1" parent="WIyWlLk6GJQsqaUBKTNV-1" source="lgDy9kngpjX4K9b9-K1K-5" target="lgDy9kngpjX4K9b9-K1K-0">
          <mxGeometry width="160" relative="1" as="geometry">
            <mxPoint x="-350" y="210" as="sourcePoint" />
            <mxPoint x="-190" y="210" as="targetPoint" />
          </mxGeometry>
        </mxCell>
        <mxCell id="lgDy9kngpjX4K9b9-K1K-9" value="" style="endArrow=block;dashed=1;endFill=0;endSize=12;html=1;rounded=0;exitX=0.5;exitY=0;exitDx=0;exitDy=0;entryX=0.75;entryY=1;entryDx=0;entryDy=0;" edge="1" parent="WIyWlLk6GJQsqaUBKTNV-1" source="lgDy9kngpjX4K9b9-K1K-7" target="lgDy9kngpjX4K9b9-K1K-0">
          <mxGeometry width="160" relative="1" as="geometry">
            <mxPoint x="-102.30999999999995" y="250" as="sourcePoint" />
            <mxPoint x="-102.30999999999995" y="150" as="targetPoint" />
            <Array as="points">
              <mxPoint x="-102" y="200" />
              <mxPoint x="-228" y="200" />
            </Array>
          </mxGeometry>
        </mxCell>
        <mxCell id="lgDy9kngpjX4K9b9-K1K-10" value="" style="endArrow=block;dashed=1;endFill=0;endSize=12;html=1;rounded=0;exitX=0.5;exitY=0;exitDx=0;exitDy=0;entryX=0.25;entryY=1;entryDx=0;entryDy=0;" edge="1" parent="WIyWlLk6GJQsqaUBKTNV-1" source="lgDy9kngpjX4K9b9-K1K-3" target="lgDy9kngpjX4K9b9-K1K-0">
          <mxGeometry width="160" relative="1" as="geometry">
            <mxPoint x="-414" y="240" as="sourcePoint" />
            <mxPoint x="-540" y="140" as="targetPoint" />
            <Array as="points">
              <mxPoint x="-462" y="190" />
              <mxPoint x="-336" y="190" />
            </Array>
          </mxGeometry>
        </mxCell>
      </root>
    </mxGraphModel>
  </diagram>
</mxfile>
